<svg width="32" height="32" viewBox="0 0 32 32" fill="none" xmlns="http://www.w3.org/2000/svg">
<circle cx="16" cy="16" r="16" fill="#ECECEC"/>
<g clip-path="url(#clip0_6_33)">
<path d="M19 25C19 26.598 17.608 28 16.029 28C14.45 28 13 26.598 13 25H19ZM19.137 7.945C18.493 7.571 18.095 6.875 18.096 6.125V6.122C18.097 4.95 17.158 4 16 4C14.842 4 13.903 4.95 13.903 6.122V6.125C13.904 6.876 13.507 7.571 12.862 7.945C8.194 10.654 10.877 19.66 6 21.251V23H26V21.251C21.123 19.66 23.807 10.653 19.137 7.945ZM16 5C16.552 5 17 5.449 17 6C17 6.552 16.552 7 16 7C15.448 7 15 6.552 15 6C15 5.449 15.448 5 16 5ZM9.549 21C10.738 19.333 11.154 17.109 11.513 15.185C11.96 12.795 12.382 10.537 13.867 9.676C15.247 8.875 16.823 8.916 18.134 9.676C19.619 10.537 20.041 12.795 20.488 15.185C20.847 17.109 21.263 19.333 22.452 21H9.549ZM24.778 13.321C24.958 14.042 24.828 14.767 24.474 15.356L25.444 15.94C25.948 15.102 26.132 14.071 25.877 13.048C25.622 12.024 24.977 11.2 24.138 10.697L23.556 11.667C24.145 12.022 24.599 12.601 24.778 13.321ZM25.174 8.975L24.577 9.97C25.6 10.586 26.389 11.593 26.702 12.844C27.013 14.095 26.787 15.354 26.172 16.378L27.166 16.976C27.702 16.084 28.001 15.05 28.001 13.976C28 11.996 26.991 10.067 25.174 8.975ZM8.444 11.667L7.862 10.697C7.023 11.201 6.378 12.024 6.123 13.048C5.868 14.071 6.052 15.101 6.556 15.94L7.526 15.356C7.172 14.768 7.042 14.042 7.222 13.321C7.401 12.601 7.855 12.022 8.444 11.667ZM4 13.975C4 15.049 4.299 16.083 4.835 16.975L5.829 16.377C5.214 15.353 4.988 14.094 5.299 12.843C5.611 11.592 6.4 10.585 7.423 9.97L6.826 8.975C5.009 10.067 4 11.996 4 13.975Z" fill="black"/>
</g>
<defs>
<clipPath id="clip0_6_33">
<rect width="24" height="24" fill="white" transform="translate(4 4)"/>
</clipPath>
</defs>
</svg>
